<mxfile host="app.diagrams.net" agent="Mozilla/5.0 (Windows NT 10.0; Win64; x64) AppleWebKit/537.36 (KHTML, like Gecko) Chrome/136.0.0.0 Safari/537.36" version="27.0.9">
  <diagram name="Página-1" id="MTeje67VDPZrYUgAEN5u">
    <mxGraphModel grid="1" page="1" gridSize="10" guides="1" tooltips="1" connect="1" arrows="1" fold="1" pageScale="1" pageWidth="1654" pageHeight="2336" math="0" shadow="0">
      <root>
        <mxCell id="0" />
        <mxCell id="1" parent="0" />
        <mxCell id="DoRbY8_7vbFzPaCFVMNG-4" style="edgeStyle=orthogonalEdgeStyle;shape=connector;rounded=0;orthogonalLoop=1;jettySize=auto;html=1;strokeColor=default;align=center;verticalAlign=middle;fontFamily=Helvetica;fontSize=11;fontColor=default;labelBackgroundColor=default;endArrow=open;endFill=0;endSize=8;" edge="1" parent="1" source="DoRbY8_7vbFzPaCFVMNG-1" target="DoRbY8_7vbFzPaCFVMNG-2">
          <mxGeometry relative="1" as="geometry" />
        </mxCell>
        <mxCell id="DoRbY8_7vbFzPaCFVMNG-1" value="" style="ellipse;fillColor=strokeColor;html=1;" vertex="1" parent="1">
          <mxGeometry x="120" y="530" width="30" height="30" as="geometry" />
        </mxCell>
        <mxCell id="DoRbY8_7vbFzPaCFVMNG-6" style="edgeStyle=orthogonalEdgeStyle;shape=connector;rounded=0;orthogonalLoop=1;jettySize=auto;html=1;entryX=0;entryY=0.5;entryDx=0;entryDy=0;strokeColor=default;align=center;verticalAlign=middle;fontFamily=Helvetica;fontSize=11;fontColor=default;labelBackgroundColor=default;endArrow=open;endFill=0;endSize=8;" edge="1" parent="1" source="DoRbY8_7vbFzPaCFVMNG-2" target="DoRbY8_7vbFzPaCFVMNG-5">
          <mxGeometry relative="1" as="geometry" />
        </mxCell>
        <mxCell id="DoRbY8_7vbFzPaCFVMNG-2" value="Decano accede a la sección usuarios y roles" style="rounded=1;whiteSpace=wrap;html=1;" vertex="1" parent="1">
          <mxGeometry x="210" y="525" width="140" height="40" as="geometry" />
        </mxCell>
        <mxCell id="DoRbY8_7vbFzPaCFVMNG-8" style="edgeStyle=orthogonalEdgeStyle;shape=connector;rounded=0;orthogonalLoop=1;jettySize=auto;html=1;entryX=0;entryY=0.5;entryDx=0;entryDy=0;strokeColor=default;align=center;verticalAlign=middle;fontFamily=Helvetica;fontSize=11;fontColor=default;labelBackgroundColor=default;endArrow=open;endFill=0;endSize=8;" edge="1" parent="1" source="DoRbY8_7vbFzPaCFVMNG-5" target="DoRbY8_7vbFzPaCFVMNG-7">
          <mxGeometry relative="1" as="geometry" />
        </mxCell>
        <mxCell id="DoRbY8_7vbFzPaCFVMNG-5" value="¿Cómo desea crear usuariosr?" style="rounded=1;whiteSpace=wrap;html=1;" vertex="1" parent="1">
          <mxGeometry x="390" y="525" width="140" height="40" as="geometry" />
        </mxCell>
        <mxCell id="DoRbY8_7vbFzPaCFVMNG-10" style="edgeStyle=orthogonalEdgeStyle;shape=connector;rounded=0;orthogonalLoop=1;jettySize=auto;html=1;entryX=0.5;entryY=1;entryDx=0;entryDy=0;strokeColor=default;align=center;verticalAlign=middle;fontFamily=Helvetica;fontSize=11;fontColor=default;labelBackgroundColor=default;endArrow=open;endFill=0;endSize=8;" edge="1" parent="1" source="DoRbY8_7vbFzPaCFVMNG-7" target="DoRbY8_7vbFzPaCFVMNG-9">
          <mxGeometry relative="1" as="geometry" />
        </mxCell>
        <mxCell id="DoRbY8_7vbFzPaCFVMNG-44" style="edgeStyle=orthogonalEdgeStyle;shape=connector;rounded=0;orthogonalLoop=1;jettySize=auto;html=1;entryX=0.5;entryY=0;entryDx=0;entryDy=0;strokeColor=default;align=center;verticalAlign=middle;fontFamily=Helvetica;fontSize=11;fontColor=default;labelBackgroundColor=default;endArrow=open;endFill=0;endSize=8;" edge="1" parent="1" source="DoRbY8_7vbFzPaCFVMNG-7" target="DoRbY8_7vbFzPaCFVMNG-43">
          <mxGeometry relative="1" as="geometry" />
        </mxCell>
        <mxCell id="DoRbY8_7vbFzPaCFVMNG-7" value="" style="rhombus;whiteSpace=wrap;html=1;" vertex="1" parent="1">
          <mxGeometry x="580" y="525" width="50" height="40" as="geometry" />
        </mxCell>
        <mxCell id="DoRbY8_7vbFzPaCFVMNG-13" style="edgeStyle=orthogonalEdgeStyle;shape=connector;rounded=0;orthogonalLoop=1;jettySize=auto;html=1;entryX=0;entryY=0.5;entryDx=0;entryDy=0;strokeColor=default;align=center;verticalAlign=middle;fontFamily=Helvetica;fontSize=11;fontColor=default;labelBackgroundColor=default;endArrow=open;endFill=0;endSize=8;" edge="1" parent="1" source="DoRbY8_7vbFzPaCFVMNG-9" target="DoRbY8_7vbFzPaCFVMNG-11">
          <mxGeometry relative="1" as="geometry" />
        </mxCell>
        <mxCell id="DoRbY8_7vbFzPaCFVMNG-9" value="Manual" style="rounded=1;whiteSpace=wrap;html=1;" vertex="1" parent="1">
          <mxGeometry x="567.5" y="440" width="75" height="40" as="geometry" />
        </mxCell>
        <mxCell id="DoRbY8_7vbFzPaCFVMNG-27" style="edgeStyle=orthogonalEdgeStyle;shape=connector;rounded=0;orthogonalLoop=1;jettySize=auto;html=1;entryX=0;entryY=0.5;entryDx=0;entryDy=0;strokeColor=default;align=center;verticalAlign=middle;fontFamily=Helvetica;fontSize=11;fontColor=default;labelBackgroundColor=default;endArrow=open;endFill=0;endSize=8;" edge="1" parent="1" source="DoRbY8_7vbFzPaCFVMNG-11" target="DoRbY8_7vbFzPaCFVMNG-26">
          <mxGeometry relative="1" as="geometry" />
        </mxCell>
        <mxCell id="DoRbY8_7vbFzPaCFVMNG-11" value="Ingreso datos del nuevo usuario" style="rounded=1;whiteSpace=wrap;html=1;" vertex="1" parent="1">
          <mxGeometry x="642.5" y="370" width="110" height="40" as="geometry" />
        </mxCell>
        <mxCell id="DoRbY8_7vbFzPaCFVMNG-19" style="edgeStyle=orthogonalEdgeStyle;shape=connector;rounded=0;orthogonalLoop=1;jettySize=auto;html=1;entryX=0;entryY=0.5;entryDx=0;entryDy=0;strokeColor=default;align=center;verticalAlign=middle;fontFamily=Helvetica;fontSize=11;fontColor=default;labelBackgroundColor=default;endArrow=open;endFill=0;endSize=8;" edge="1" parent="1" source="DoRbY8_7vbFzPaCFVMNG-16" target="DoRbY8_7vbFzPaCFVMNG-18">
          <mxGeometry relative="1" as="geometry" />
        </mxCell>
        <mxCell id="DoRbY8_7vbFzPaCFVMNG-16" value="Validar si id ya existe" style="rounded=1;whiteSpace=wrap;html=1;" vertex="1" parent="1">
          <mxGeometry x="1080" y="370" width="110" height="40" as="geometry" />
        </mxCell>
        <mxCell id="DoRbY8_7vbFzPaCFVMNG-21" style="edgeStyle=orthogonalEdgeStyle;shape=connector;rounded=0;orthogonalLoop=1;jettySize=auto;html=1;entryX=0.5;entryY=1;entryDx=0;entryDy=0;strokeColor=default;align=center;verticalAlign=middle;fontFamily=Helvetica;fontSize=11;fontColor=default;labelBackgroundColor=default;endArrow=open;endFill=0;endSize=8;" edge="1" parent="1" source="DoRbY8_7vbFzPaCFVMNG-18" target="DoRbY8_7vbFzPaCFVMNG-20">
          <mxGeometry relative="1" as="geometry" />
        </mxCell>
        <mxCell id="DoRbY8_7vbFzPaCFVMNG-38" style="edgeStyle=orthogonalEdgeStyle;shape=connector;rounded=0;orthogonalLoop=1;jettySize=auto;html=1;entryX=0;entryY=0.5;entryDx=0;entryDy=0;strokeColor=default;align=center;verticalAlign=middle;fontFamily=Helvetica;fontSize=11;fontColor=default;labelBackgroundColor=default;endArrow=open;endFill=0;endSize=8;" edge="1" parent="1" source="DoRbY8_7vbFzPaCFVMNG-18" target="DoRbY8_7vbFzPaCFVMNG-37">
          <mxGeometry relative="1" as="geometry" />
        </mxCell>
        <mxCell id="DoRbY8_7vbFzPaCFVMNG-18" value="" style="rhombus;whiteSpace=wrap;html=1;" vertex="1" parent="1">
          <mxGeometry x="1258.75" y="370" width="50" height="40" as="geometry" />
        </mxCell>
        <mxCell id="DoRbY8_7vbFzPaCFVMNG-23" style="edgeStyle=orthogonalEdgeStyle;shape=connector;rounded=0;orthogonalLoop=1;jettySize=auto;html=1;strokeColor=default;align=center;verticalAlign=middle;fontFamily=Helvetica;fontSize=11;fontColor=default;labelBackgroundColor=default;endArrow=open;endFill=0;endSize=8;" edge="1" parent="1" source="DoRbY8_7vbFzPaCFVMNG-20" target="DoRbY8_7vbFzPaCFVMNG-22">
          <mxGeometry relative="1" as="geometry" />
        </mxCell>
        <mxCell id="DoRbY8_7vbFzPaCFVMNG-20" value="Mostrar error" style="rounded=1;whiteSpace=wrap;html=1;" vertex="1" parent="1">
          <mxGeometry x="1245" y="280" width="77.5" height="40" as="geometry" />
        </mxCell>
        <mxCell id="DoRbY8_7vbFzPaCFVMNG-24" style="edgeStyle=orthogonalEdgeStyle;shape=connector;rounded=0;orthogonalLoop=1;jettySize=auto;html=1;entryX=0.5;entryY=0;entryDx=0;entryDy=0;strokeColor=default;align=center;verticalAlign=middle;fontFamily=Helvetica;fontSize=11;fontColor=default;labelBackgroundColor=default;endArrow=open;endFill=0;endSize=8;" edge="1" parent="1" source="DoRbY8_7vbFzPaCFVMNG-22" target="DoRbY8_7vbFzPaCFVMNG-16">
          <mxGeometry relative="1" as="geometry" />
        </mxCell>
        <mxCell id="DoRbY8_7vbFzPaCFVMNG-22" value="Ingresar nuevo id" style="rounded=1;whiteSpace=wrap;html=1;" vertex="1" parent="1">
          <mxGeometry x="1087.5" y="280" width="95" height="40" as="geometry" />
        </mxCell>
        <mxCell id="DoRbY8_7vbFzPaCFVMNG-25" value="[existe=true]" style="text;html=1;align=center;verticalAlign=middle;resizable=0;points=[];autosize=1;strokeColor=none;fillColor=none;" vertex="1" parent="1">
          <mxGeometry x="1280" y="345" width="90" height="30" as="geometry" />
        </mxCell>
        <mxCell id="DoRbY8_7vbFzPaCFVMNG-30" style="edgeStyle=orthogonalEdgeStyle;shape=connector;rounded=0;orthogonalLoop=1;jettySize=auto;html=1;entryX=0;entryY=0.5;entryDx=0;entryDy=0;strokeColor=default;align=center;verticalAlign=middle;fontFamily=Helvetica;fontSize=11;fontColor=default;labelBackgroundColor=default;endArrow=open;endFill=0;endSize=8;" edge="1" parent="1" source="DoRbY8_7vbFzPaCFVMNG-26" target="DoRbY8_7vbFzPaCFVMNG-28">
          <mxGeometry relative="1" as="geometry" />
        </mxCell>
        <mxCell id="DoRbY8_7vbFzPaCFVMNG-26" value="¿Todos los campos completados?" style="rounded=1;whiteSpace=wrap;html=1;" vertex="1" parent="1">
          <mxGeometry x="807.5" y="370" width="110" height="40" as="geometry" />
        </mxCell>
        <mxCell id="DoRbY8_7vbFzPaCFVMNG-33" style="edgeStyle=orthogonalEdgeStyle;shape=connector;rounded=0;orthogonalLoop=1;jettySize=auto;html=1;entryX=1;entryY=0.5;entryDx=0;entryDy=0;strokeColor=default;align=center;verticalAlign=middle;fontFamily=Helvetica;fontSize=11;fontColor=default;labelBackgroundColor=default;endArrow=open;endFill=0;endSize=8;" edge="1" parent="1" source="DoRbY8_7vbFzPaCFVMNG-28" target="DoRbY8_7vbFzPaCFVMNG-31">
          <mxGeometry relative="1" as="geometry">
            <Array as="points">
              <mxPoint x="990" y="280" />
            </Array>
          </mxGeometry>
        </mxCell>
        <mxCell id="DoRbY8_7vbFzPaCFVMNG-35" style="edgeStyle=orthogonalEdgeStyle;shape=connector;rounded=0;orthogonalLoop=1;jettySize=auto;html=1;entryX=0;entryY=0.5;entryDx=0;entryDy=0;strokeColor=default;align=center;verticalAlign=middle;fontFamily=Helvetica;fontSize=11;fontColor=default;labelBackgroundColor=default;endArrow=open;endFill=0;endSize=8;" edge="1" parent="1" source="DoRbY8_7vbFzPaCFVMNG-28" target="DoRbY8_7vbFzPaCFVMNG-16">
          <mxGeometry relative="1" as="geometry" />
        </mxCell>
        <mxCell id="DoRbY8_7vbFzPaCFVMNG-28" value="" style="rhombus;whiteSpace=wrap;html=1;" vertex="1" parent="1">
          <mxGeometry x="965" y="370" width="50" height="40" as="geometry" />
        </mxCell>
        <mxCell id="DoRbY8_7vbFzPaCFVMNG-32" style="edgeStyle=orthogonalEdgeStyle;shape=connector;rounded=0;orthogonalLoop=1;jettySize=auto;html=1;entryX=0.5;entryY=0;entryDx=0;entryDy=0;strokeColor=default;align=center;verticalAlign=middle;fontFamily=Helvetica;fontSize=11;fontColor=default;labelBackgroundColor=default;endArrow=open;endFill=0;endSize=8;" edge="1" parent="1" source="DoRbY8_7vbFzPaCFVMNG-31" target="DoRbY8_7vbFzPaCFVMNG-11">
          <mxGeometry relative="1" as="geometry" />
        </mxCell>
        <mxCell id="DoRbY8_7vbFzPaCFVMNG-31" value="Error" style="rounded=1;whiteSpace=wrap;html=1;" vertex="1" parent="1">
          <mxGeometry x="815" y="260" width="95" height="40" as="geometry" />
        </mxCell>
        <mxCell id="DoRbY8_7vbFzPaCFVMNG-34" value="=false" style="text;html=1;align=center;verticalAlign=middle;resizable=0;points=[];autosize=1;strokeColor=none;fillColor=none;fontFamily=Helvetica;fontSize=11;fontColor=default;labelBackgroundColor=default;" vertex="1" parent="1">
          <mxGeometry x="990" y="340" width="50" height="30" as="geometry" />
        </mxCell>
        <mxCell id="DoRbY8_7vbFzPaCFVMNG-36" value="=true" style="text;html=1;align=center;verticalAlign=middle;resizable=0;points=[];autosize=1;strokeColor=none;fillColor=none;fontFamily=Helvetica;fontSize=11;fontColor=default;labelBackgroundColor=default;" vertex="1" parent="1">
          <mxGeometry x="1000" y="385" width="50" height="30" as="geometry" />
        </mxCell>
        <mxCell id="DoRbY8_7vbFzPaCFVMNG-40" style="edgeStyle=orthogonalEdgeStyle;shape=connector;rounded=0;orthogonalLoop=1;jettySize=auto;html=1;strokeColor=default;align=center;verticalAlign=middle;fontFamily=Helvetica;fontSize=11;fontColor=default;labelBackgroundColor=default;endArrow=open;endFill=0;endSize=8;" edge="1" parent="1" source="DoRbY8_7vbFzPaCFVMNG-37" target="DoRbY8_7vbFzPaCFVMNG-39">
          <mxGeometry relative="1" as="geometry" />
        </mxCell>
        <mxCell id="DoRbY8_7vbFzPaCFVMNG-37" value="Crear usuario" style="rounded=1;whiteSpace=wrap;html=1;" vertex="1" parent="1">
          <mxGeometry x="1400" y="370" width="100" height="40" as="geometry" />
        </mxCell>
        <mxCell id="DoRbY8_7vbFzPaCFVMNG-42" style="edgeStyle=orthogonalEdgeStyle;shape=connector;rounded=0;orthogonalLoop=1;jettySize=auto;html=1;strokeColor=default;align=center;verticalAlign=middle;fontFamily=Helvetica;fontSize=11;fontColor=default;labelBackgroundColor=default;endArrow=open;endFill=0;endSize=8;" edge="1" parent="1" source="DoRbY8_7vbFzPaCFVMNG-39" target="DoRbY8_7vbFzPaCFVMNG-41">
          <mxGeometry relative="1" as="geometry" />
        </mxCell>
        <mxCell id="DoRbY8_7vbFzPaCFVMNG-39" value="Envío de credenciales por correo" style="rounded=1;whiteSpace=wrap;html=1;" vertex="1" parent="1">
          <mxGeometry x="1550" y="365" width="110" height="50" as="geometry" />
        </mxCell>
        <mxCell id="DoRbY8_7vbFzPaCFVMNG-41" value="" style="ellipse;html=1;shape=endState;fillColor=strokeColor;" vertex="1" parent="1">
          <mxGeometry x="1710" y="375" width="30" height="30" as="geometry" />
        </mxCell>
        <mxCell id="DoRbY8_7vbFzPaCFVMNG-46" style="edgeStyle=orthogonalEdgeStyle;shape=connector;rounded=0;orthogonalLoop=1;jettySize=auto;html=1;entryX=0;entryY=0.5;entryDx=0;entryDy=0;strokeColor=default;align=center;verticalAlign=middle;fontFamily=Helvetica;fontSize=11;fontColor=default;labelBackgroundColor=default;endArrow=open;endFill=0;endSize=8;" edge="1" parent="1" source="DoRbY8_7vbFzPaCFVMNG-43" target="DoRbY8_7vbFzPaCFVMNG-45">
          <mxGeometry relative="1" as="geometry" />
        </mxCell>
        <mxCell id="DoRbY8_7vbFzPaCFVMNG-43" value="Automático" style="rounded=1;whiteSpace=wrap;html=1;" vertex="1" parent="1">
          <mxGeometry x="567.5" y="610" width="75" height="40" as="geometry" />
        </mxCell>
        <mxCell id="DoRbY8_7vbFzPaCFVMNG-48" style="edgeStyle=orthogonalEdgeStyle;shape=connector;rounded=0;orthogonalLoop=1;jettySize=auto;html=1;strokeColor=default;align=center;verticalAlign=middle;fontFamily=Helvetica;fontSize=11;fontColor=default;labelBackgroundColor=default;endArrow=open;endFill=0;endSize=8;" edge="1" parent="1" source="DoRbY8_7vbFzPaCFVMNG-45" target="DoRbY8_7vbFzPaCFVMNG-47">
          <mxGeometry relative="1" as="geometry" />
        </mxCell>
        <mxCell id="DoRbY8_7vbFzPaCFVMNG-45" value="Abre explorador de archivos" style="rounded=1;whiteSpace=wrap;html=1;" vertex="1" parent="1">
          <mxGeometry x="642.5" y="690" width="110" height="40" as="geometry" />
        </mxCell>
        <mxCell id="DoRbY8_7vbFzPaCFVMNG-50" style="edgeStyle=orthogonalEdgeStyle;shape=connector;rounded=0;orthogonalLoop=1;jettySize=auto;html=1;entryX=0;entryY=0.5;entryDx=0;entryDy=0;strokeColor=default;align=center;verticalAlign=middle;fontFamily=Helvetica;fontSize=11;fontColor=default;labelBackgroundColor=default;endArrow=open;endFill=0;endSize=8;" edge="1" parent="1" source="DoRbY8_7vbFzPaCFVMNG-47" target="DoRbY8_7vbFzPaCFVMNG-49">
          <mxGeometry relative="1" as="geometry" />
        </mxCell>
        <mxCell id="DoRbY8_7vbFzPaCFVMNG-47" value="Selecciona archivo con usuarios" style="rounded=1;whiteSpace=wrap;html=1;" vertex="1" parent="1">
          <mxGeometry x="807.5" y="690" width="110" height="40" as="geometry" />
        </mxCell>
        <mxCell id="DoRbY8_7vbFzPaCFVMNG-52" style="edgeStyle=orthogonalEdgeStyle;shape=connector;rounded=0;orthogonalLoop=1;jettySize=auto;html=1;entryX=0;entryY=0.5;entryDx=0;entryDy=0;strokeColor=default;align=center;verticalAlign=middle;fontFamily=Helvetica;fontSize=11;fontColor=default;labelBackgroundColor=default;endArrow=open;endFill=0;endSize=8;" edge="1" parent="1" source="DoRbY8_7vbFzPaCFVMNG-49" target="DoRbY8_7vbFzPaCFVMNG-51">
          <mxGeometry relative="1" as="geometry" />
        </mxCell>
        <mxCell id="DoRbY8_7vbFzPaCFVMNG-49" value="¿Hay usuarios con campos sin rellenar o con id ya existente?" style="rounded=1;whiteSpace=wrap;html=1;" vertex="1" parent="1">
          <mxGeometry x="965" y="685" width="130" height="50" as="geometry" />
        </mxCell>
        <mxCell id="DoRbY8_7vbFzPaCFVMNG-54" value="" style="edgeStyle=orthogonalEdgeStyle;shape=connector;rounded=0;orthogonalLoop=1;jettySize=auto;html=1;strokeColor=default;align=center;verticalAlign=middle;fontFamily=Helvetica;fontSize=11;fontColor=default;labelBackgroundColor=default;endArrow=open;endFill=0;endSize=8;" edge="1" parent="1" source="DoRbY8_7vbFzPaCFVMNG-51" target="DoRbY8_7vbFzPaCFVMNG-53">
          <mxGeometry relative="1" as="geometry" />
        </mxCell>
        <mxCell id="DoRbY8_7vbFzPaCFVMNG-62" style="edgeStyle=orthogonalEdgeStyle;shape=connector;rounded=0;orthogonalLoop=1;jettySize=auto;html=1;strokeColor=default;align=center;verticalAlign=middle;fontFamily=Helvetica;fontSize=11;fontColor=default;labelBackgroundColor=default;endArrow=open;endFill=0;endSize=8;" edge="1" parent="1" source="DoRbY8_7vbFzPaCFVMNG-51" target="DoRbY8_7vbFzPaCFVMNG-61">
          <mxGeometry relative="1" as="geometry" />
        </mxCell>
        <mxCell id="DoRbY8_7vbFzPaCFVMNG-51" value="" style="rhombus;whiteSpace=wrap;html=1;" vertex="1" parent="1">
          <mxGeometry x="1140" y="690" width="50" height="40" as="geometry" />
        </mxCell>
        <mxCell id="DoRbY8_7vbFzPaCFVMNG-56" style="edgeStyle=orthogonalEdgeStyle;shape=connector;rounded=0;orthogonalLoop=1;jettySize=auto;html=1;strokeColor=default;align=center;verticalAlign=middle;fontFamily=Helvetica;fontSize=11;fontColor=default;labelBackgroundColor=default;endArrow=open;endFill=0;endSize=8;" edge="1" parent="1" source="DoRbY8_7vbFzPaCFVMNG-53" target="DoRbY8_7vbFzPaCFVMNG-55">
          <mxGeometry relative="1" as="geometry" />
        </mxCell>
        <mxCell id="DoRbY8_7vbFzPaCFVMNG-53" value="Error" style="rounded=1;whiteSpace=wrap;html=1;" vertex="1" parent="1">
          <mxGeometry x="1140" y="620" width="50" height="30" as="geometry" />
        </mxCell>
        <mxCell id="DoRbY8_7vbFzPaCFVMNG-58" style="edgeStyle=orthogonalEdgeStyle;shape=connector;rounded=0;orthogonalLoop=1;jettySize=auto;html=1;entryX=0;entryY=0.5;entryDx=0;entryDy=0;strokeColor=default;align=center;verticalAlign=middle;fontFamily=Helvetica;fontSize=11;fontColor=default;labelBackgroundColor=default;endArrow=open;endFill=0;endSize=8;" edge="1" parent="1" source="DoRbY8_7vbFzPaCFVMNG-55" target="DoRbY8_7vbFzPaCFVMNG-57">
          <mxGeometry relative="1" as="geometry" />
        </mxCell>
        <mxCell id="DoRbY8_7vbFzPaCFVMNG-55" value="Usuarios con problemas no son creados" style="rounded=1;whiteSpace=wrap;html=1;" vertex="1" parent="1">
          <mxGeometry x="1105" y="540" width="120" height="50" as="geometry" />
        </mxCell>
        <mxCell id="DoRbY8_7vbFzPaCFVMNG-60" style="edgeStyle=orthogonalEdgeStyle;shape=connector;rounded=0;orthogonalLoop=1;jettySize=auto;html=1;strokeColor=default;align=center;verticalAlign=middle;fontFamily=Helvetica;fontSize=11;fontColor=default;labelBackgroundColor=default;endArrow=open;endFill=0;endSize=8;" edge="1" parent="1" source="DoRbY8_7vbFzPaCFVMNG-57" target="DoRbY8_7vbFzPaCFVMNG-59">
          <mxGeometry relative="1" as="geometry" />
        </mxCell>
        <mxCell id="DoRbY8_7vbFzPaCFVMNG-57" value="Usuarios sin problemas son creados" style="rounded=1;whiteSpace=wrap;html=1;" vertex="1" parent="1">
          <mxGeometry x="1280" y="540" width="120" height="50" as="geometry" />
        </mxCell>
        <mxCell id="DoRbY8_7vbFzPaCFVMNG-65" style="edgeStyle=orthogonalEdgeStyle;shape=connector;rounded=0;orthogonalLoop=1;jettySize=auto;html=1;strokeColor=default;align=center;verticalAlign=middle;fontFamily=Helvetica;fontSize=11;fontColor=default;labelBackgroundColor=default;endArrow=open;endFill=0;endSize=8;" edge="1" parent="1" source="DoRbY8_7vbFzPaCFVMNG-59" target="DoRbY8_7vbFzPaCFVMNG-64">
          <mxGeometry relative="1" as="geometry" />
        </mxCell>
        <mxCell id="DoRbY8_7vbFzPaCFVMNG-59" value="Envío de credenciales por correo" style="rounded=1;whiteSpace=wrap;html=1;" vertex="1" parent="1">
          <mxGeometry x="1460" y="540" width="110" height="50" as="geometry" />
        </mxCell>
        <mxCell id="DoRbY8_7vbFzPaCFVMNG-63" style="edgeStyle=orthogonalEdgeStyle;shape=connector;rounded=0;orthogonalLoop=1;jettySize=auto;html=1;entryX=0.5;entryY=1;entryDx=0;entryDy=0;strokeColor=default;align=center;verticalAlign=middle;fontFamily=Helvetica;fontSize=11;fontColor=default;labelBackgroundColor=default;endArrow=open;endFill=0;endSize=8;" edge="1" parent="1" source="DoRbY8_7vbFzPaCFVMNG-61" target="DoRbY8_7vbFzPaCFVMNG-59">
          <mxGeometry relative="1" as="geometry" />
        </mxCell>
        <mxCell id="DoRbY8_7vbFzPaCFVMNG-61" value="Usuarios creados" style="rounded=1;whiteSpace=wrap;html=1;" vertex="1" parent="1">
          <mxGeometry x="1280" y="685" width="120" height="50" as="geometry" />
        </mxCell>
        <mxCell id="DoRbY8_7vbFzPaCFVMNG-64" value="" style="ellipse;html=1;shape=endState;fillColor=strokeColor;" vertex="1" parent="1">
          <mxGeometry x="1654" y="550" width="30" height="30" as="geometry" />
        </mxCell>
        <mxCell id="DoRbY8_7vbFzPaCFVMNG-66" value="=true" style="text;html=1;align=center;verticalAlign=middle;resizable=0;points=[];autosize=1;strokeColor=none;fillColor=none;fontFamily=Helvetica;fontSize=11;fontColor=default;labelBackgroundColor=default;" vertex="1" parent="1">
          <mxGeometry x="1160" y="668" width="50" height="30" as="geometry" />
        </mxCell>
        <mxCell id="DoRbY8_7vbFzPaCFVMNG-67" value="=false" style="text;html=1;align=center;verticalAlign=middle;resizable=0;points=[];autosize=1;strokeColor=none;fillColor=none;fontFamily=Helvetica;fontSize=11;fontColor=default;labelBackgroundColor=default;" vertex="1" parent="1">
          <mxGeometry x="1175" y="705" width="50" height="30" as="geometry" />
        </mxCell>
        <mxCell id="DoRbY8_7vbFzPaCFVMNG-70" value="[existe=false]" style="text;html=1;align=center;verticalAlign=middle;resizable=0;points=[];autosize=1;strokeColor=none;fillColor=none;" vertex="1" parent="1">
          <mxGeometry x="1295" y="385" width="90" height="30" as="geometry" />
        </mxCell>
      </root>
    </mxGraphModel>
  </diagram>
</mxfile>
